<?xml version="1.0" encoding="utf-8" ?>
<svg baseProfile="tiny" height="100%" version="1.2" viewBox="0 0 500 500" width="100%" xmlns="http://www.w3.org/2000/svg" xmlns:ev="http://www.w3.org/2001/xml-events" xmlns:xlink="http://www.w3.org/1999/xlink"><defs /><path d="M 169.47 20.0L 169.39 23.66L 169.14 27.32L 168.75 30.97L 168.28 34.6L 167.78 38.22L 167.3 41.85L 166.91 45.49L 166.65 49.17L 166.55 52.91L 166.62 56.72L 166.85 60.64L 167.21 64.65L 167.65 68.77L 168.13 73.0L 168.59 77.31L 168.96 81.7L 169.22 86.14L 169.33 90.62L 169.28 95.14L 169.08 99.68L 168.76 104.27L 168.36 108.92L 167.93 113.68L 167.52 118.57L 167.18 123.66L 166.95 128.98L 166.84 134.59L 166.87 140.53L 167.03 146.83L 167.3 153.5L 167.63 160.56L 168.0 168.0L 161.25 168.36L 154.76 168.69L 148.49 168.96L 142.38 169.12L 136.4 169.15L 130.54 169.04L 124.8 168.81L 119.2 168.47L 113.75 168.06L 108.48 167.63L 103.4 167.23L 98.52 166.91L 93.85 166.71L 89.36 166.66L 85.06 166.77L 80.9 167.03L 76.86 167.4L 72.9 167.86L 69.0 168.34L 65.13 168.78L 61.27 169.14L 57.41 169.37L 53.55 169.44L 49.7 169.34L 45.86 169.08L 42.05 168.69L 38.28 168.21L 34.54 167.71L 30.86 167.24L 27.21 166.85L 23.59 166.6L 20.0 166.52L 16.41 166.6L 12.79 166.85L 9.14 167.24L 5.46 167.71L 1.72 168.21L -2.05 168.69L -5.86 169.08L -9.7 169.34L -13.55 169.44L -17.41 169.37L -21.27 169.14L -25.13 168.78L -29.0 168.34L -32.9 167.86L -36.86 167.4L -40.9 167.03L -45.06 166.77L -49.36 166.66L -53.85 166.71L -58.52 166.91L -63.4 167.23L -68.48 167.63L -73.75 168.06L -79.2 168.47L -84.8 168.81L -90.54 169.04L -96.4 169.15L -102.38 169.12L -108.49 168.96L -114.76 168.69L -121.25 168.36L -127.99 168.0L -127.63 160.56L -127.3 153.5L -127.03 146.83L -126.87 140.53L -126.84 134.59L -126.95 128.98L -127.18 123.66L -127.52 118.57L -127.93 113.68L -128.36 108.92L -128.76 104.27L -129.08 99.68L -129.28 95.14L -129.33 90.62L -129.22 86.14L -128.96 81.7L -128.59 77.31L -128.13 73.0L -127.65 68.77L -127.21 64.65L -126.85 60.64L -126.62 56.72L -126.55 52.91L -126.65 49.17L -126.91 45.49L -127.3 41.85L -127.78 38.22L -128.28 34.6L -128.75 30.97L -129.14 27.32L -129.39 23.66L -129.47 20.0L -129.39 16.34L -129.14 12.68L -128.75 9.03L -128.28 5.4L -127.78 1.78L -127.3 -1.85L -126.91 -5.49L -126.65 -9.17L -126.55 -12.91L -126.62 -16.72L -126.85 -20.64L -127.21 -24.65L -127.65 -28.77L -128.13 -33.0L -128.59 -37.31L -128.96 -41.7L -129.22 -46.14L -129.33 -50.62L -129.28 -55.14L -129.08 -59.68L -128.76 -64.27L -128.36 -68.92L -127.93 -73.68L -127.52 -78.57L -127.18 -83.66L -126.95 -88.98L -126.84 -94.59L -126.87 -100.53L -127.03 -106.83L -127.3 -113.5L -127.63 -120.56L -128.0 -127.99L -121.25 -128.36L -114.76 -128.69L -108.49 -128.96L -102.38 -129.12L -96.4 -129.15L -90.54 -129.04L -84.8 -128.81L -79.2 -128.47L -73.75 -128.06L -68.48 -127.63L -63.4 -127.23L -58.52 -126.91L -53.85 -126.71L -49.36 -126.66L -45.06 -126.77L -40.9 -127.03L -36.86 -127.4L -32.9 -127.86L -29.0 -128.34L -25.13 -128.78L -21.27 -129.14L -17.41 -129.37L -13.55 -129.44L -9.7 -129.34L -5.86 -129.08L -2.05 -128.69L 1.72 -128.21L 5.46 -127.71L 9.14 -127.24L 12.79 -126.85L 16.41 -126.6L 20.0 -126.52L 23.59 -126.6L 27.21 -126.85L 30.86 -127.24L 34.54 -127.71L 38.28 -128.21L 42.05 -128.69L 45.86 -129.08L 49.7 -129.34L 53.55 -129.44L 57.41 -129.37L 61.27 -129.14L 65.13 -128.78L 69.0 -128.34L 72.9 -127.86L 76.86 -127.4L 80.9 -127.03L 85.06 -126.77L 89.36 -126.66L 93.85 -126.71L 98.52 -126.91L 103.4 -127.23L 108.48 -127.63L 113.75 -128.06L 119.2 -128.47L 124.8 -128.81L 130.54 -129.04L 136.4 -129.15L 142.38 -129.12L 148.49 -128.96L 154.76 -128.69L 161.25 -128.36L 167.99 -128.0L 167.63 -120.56L 167.3 -113.5L 167.03 -106.83L 166.87 -100.53L 166.84 -94.59L 166.95 -88.98L 167.18 -83.66L 167.52 -78.57L 167.93 -73.68L 168.36 -68.92L 168.76 -64.27L 169.08 -59.68L 169.28 -55.14L 169.33 -50.62L 169.22 -46.14L 168.96 -41.7L 168.59 -37.31L 168.13 -33.0L 167.65 -28.77L 167.21 -24.65L 166.85 -20.64L 166.62 -16.72L 166.55 -12.91L 166.65 -9.17L 166.91 -5.49L 167.3 -1.85L 167.78 1.78L 168.28 5.4L 168.75 9.03L 169.14 12.68L 169.39 16.34L 169.48 20.0" fill="none" stroke="#000" stroke-width="0.1" /></svg>